<svg xmlns="http://www.w3.org/2000/svg" viewBox="0 0 64 64" role="img" aria-label="BIH flag badge">
  <defs><clipPath id="clip"><circle cx="32" cy="32" r="30"/></clipPath></defs>
  <circle cx="32" cy="32" r="31" fill="#0f172a"/>
  <g clip-path="url(#clip)"><rect x="0" y="0" width="64" height="64" fill="#002f6c"/><polygon points="24,0 64,64 24,64" fill="#f7d116"/><polygon points="18.00,5.00 18.74,6.98 20.85,7.07 19.20,8.39 19.76,10.43 18.00,9.26 16.24,10.43 16.80,8.39 15.15,7.07 17.26,6.98" fill="#fff"/><polygon points="24.00,13.00 24.74,14.98 26.85,15.07 25.20,16.39 25.76,18.43 24.00,17.26 22.24,18.43 22.80,16.39 21.15,15.07 23.26,14.98" fill="#fff"/><polygon points="30.00,21.00 30.74,22.98 32.85,23.07 31.20,24.39 31.76,26.43 30.00,25.26 28.24,26.43 28.80,24.39 27.15,23.07 29.26,22.98" fill="#fff"/><polygon points="36.00,29.00 36.74,30.98 38.85,31.07 37.20,32.39 37.76,34.43 36.00,33.26 34.24,34.43 34.80,32.39 33.15,31.07 35.26,30.98" fill="#fff"/><polygon points="42.00,37.00 42.74,38.98 44.85,39.07 43.20,40.39 43.76,42.43 42.00,41.26 40.24,42.43 40.80,40.39 39.15,39.07 41.26,38.98" fill="#fff"/><polygon points="48.00,45.00 48.74,46.98 50.85,47.07 49.20,48.39 49.76,50.43 48.00,49.26 46.24,50.43 46.80,48.39 45.15,47.07 47.26,46.98" fill="#fff"/></g>
  <circle cx="32" cy="32" r="30" fill="none" stroke="rgba(255,255,255,.45)" stroke-width="2"/>
</svg>