<svg xmlns="http://www.w3.org/2000/svg" viewBox="0 0 64 64" role="img" aria-label="CPV flag badge">
  <defs><clipPath id="clip"><circle cx="32" cy="32" r="30"/></clipPath></defs>
  <circle cx="32" cy="32" r="31" fill="#0f172a"/>
  <g clip-path="url(#clip)"><rect x="0" y="0" width="64" height="64" fill="#003893"/><rect x="0" y="32" width="64" height="10" fill="#fff"/><rect x="0" y="36" width="64" height="4" fill="#cf2027"/><polygon points="28.00,32.00 28.49,33.32 29.90,33.38 28.80,34.26 29.18,35.62 28.00,34.84 26.82,35.62 27.20,34.26 26.10,33.38 27.51,33.32" fill="#f7d116"/><polygon points="26.47,36.70 26.97,38.02 28.37,38.08 27.27,38.96 27.65,40.32 26.47,39.54 25.30,40.32 25.67,38.96 24.57,38.08 25.98,38.02" fill="#f7d116"/><polygon points="22.47,39.61 22.97,40.93 24.37,40.99 23.27,41.87 23.65,43.23 22.47,42.45 21.30,43.23 21.67,41.87 20.57,40.99 21.98,40.93" fill="#f7d116"/><polygon points="17.53,39.61 18.02,40.93 19.43,40.99 18.33,41.87 18.70,43.23 17.53,42.45 16.35,43.23 16.73,41.87 15.63,40.99 17.03,40.93" fill="#f7d116"/><polygon points="13.53,36.70 14.02,38.02 15.43,38.08 14.33,38.96 14.70,40.32 13.53,39.54 12.35,40.32 12.73,38.96 11.63,38.08 13.03,38.02" fill="#f7d116"/><polygon points="12.00,32.00 12.49,33.32 13.90,33.38 12.80,34.26 13.18,35.62 12.00,34.84 10.82,35.62 11.20,34.26 10.10,33.38 11.51,33.32" fill="#f7d116"/><polygon points="13.53,27.30 14.02,28.62 15.43,28.68 14.33,29.56 14.70,30.92 13.53,30.14 12.35,30.92 12.73,29.56 11.63,28.68 13.03,28.62" fill="#f7d116"/><polygon points="17.53,24.39 18.02,25.71 19.43,25.77 18.33,26.65 18.70,28.01 17.53,27.23 16.35,28.01 16.73,26.65 15.63,25.77 17.03,25.71" fill="#f7d116"/><polygon points="22.47,24.39 22.97,25.71 24.37,25.77 23.27,26.65 23.65,28.01 22.47,27.23 21.30,28.01 21.67,26.65 20.57,25.77 21.98,25.71" fill="#f7d116"/><polygon points="26.47,27.30 26.97,28.62 28.37,28.68 27.27,29.56 27.65,30.92 26.47,30.14 25.30,30.92 25.67,29.56 24.57,28.68 25.98,28.62" fill="#f7d116"/></g>
  <circle cx="32" cy="32" r="30" fill="none" stroke="rgba(255,255,255,.45)" stroke-width="2"/>
</svg>