<svg xmlns="http://www.w3.org/2000/svg" viewBox="0 0 64 64" role="img" aria-label="CRO flag badge">
  <defs><clipPath id="clip"><circle cx="32" cy="32" r="30"/></clipPath></defs>
  <circle cx="32" cy="32" r="31" fill="#0f172a"/>
  <g clip-path="url(#clip)"><rect x="0" y="0.0" width="64" height="21.433333333333334" fill="#ff0000"/><rect x="0" y="21.333333333333332" width="64" height="21.433333333333334" fill="#fff"/><rect x="0" y="42.666666666666664" width="64" height="21.433333333333334" fill="#171796"/><rect x="24" y="22" width="16" height="16" fill="#fff"/><rect x="24" y="22" width="4" height="4" fill="#ff0000"/><rect x="28" y="22" width="4" height="4" fill="#fff"/><rect x="32" y="22" width="4" height="4" fill="#ff0000"/><rect x="36" y="22" width="4" height="4" fill="#fff"/><rect x="24" y="26" width="4" height="4" fill="#fff"/><rect x="28" y="26" width="4" height="4" fill="#ff0000"/><rect x="32" y="26" width="4" height="4" fill="#fff"/><rect x="36" y="26" width="4" height="4" fill="#ff0000"/><rect x="24" y="30" width="4" height="4" fill="#ff0000"/><rect x="28" y="30" width="4" height="4" fill="#fff"/><rect x="32" y="30" width="4" height="4" fill="#ff0000"/><rect x="36" y="30" width="4" height="4" fill="#fff"/><rect x="24" y="34" width="4" height="4" fill="#fff"/><rect x="28" y="34" width="4" height="4" fill="#ff0000"/><rect x="32" y="34" width="4" height="4" fill="#fff"/><rect x="36" y="34" width="4" height="4" fill="#ff0000"/></g>
  <circle cx="32" cy="32" r="30" fill="none" stroke="rgba(255,255,255,.45)" stroke-width="2"/>
</svg>