<svg xmlns="http://www.w3.org/2000/svg" viewBox="0 0 64 64" role="img" aria-label="PAN flag badge">
  <defs><clipPath id="clip"><circle cx="32" cy="32" r="30"/></clipPath></defs>
  <circle cx="32" cy="32" r="31" fill="#0f172a"/>
  <g clip-path="url(#clip)"><rect x="0" y="0" width="32" height="32" fill="#fff"/><rect x="32" y="0" width="32" height="32" fill="#d21034"/><rect x="0" y="32" width="32" height="32" fill="#005293"/><rect x="32" y="32" width="32" height="32" fill="#fff"/><polygon points="16.00,11.00 17.23,14.30 20.76,14.45 18.00,16.65 18.94,20.05 16.00,18.10 13.06,20.05 14.00,16.65 11.24,14.45 14.77,14.30" fill="#005293"/><polygon points="48.00,43.00 49.23,46.30 52.76,46.45 50.00,48.65 50.94,52.05 48.00,50.10 45.06,52.05 46.00,48.65 43.24,46.45 46.77,46.30" fill="#d21034"/></g>
  <circle cx="32" cy="32" r="30" fill="none" stroke="rgba(255,255,255,.45)" stroke-width="2"/>
</svg>