<svg xmlns="http://www.w3.org/2000/svg" viewBox="0 0 64 64" role="img" aria-label="QAT flag badge">
  <defs><clipPath id="clip"><circle cx="32" cy="32" r="30"/></clipPath></defs>
  <circle cx="32" cy="32" r="31" fill="#0f172a"/>
  <g clip-path="url(#clip)"><rect x="0" y="0" width="64" height="64" fill="#8a1538"/><rect x="0" y="0" width="16" height="64" fill="#fff"/><polygon points="16,0 24,3.5 16,7" fill="#fff"/><polygon points="16,7 24,10.5 16,14" fill="#fff"/><polygon points="16,14 24,17.5 16,21" fill="#fff"/><polygon points="16,21 24,24.5 16,28" fill="#fff"/><polygon points="16,28 24,31.5 16,35" fill="#fff"/><polygon points="16,35 24,38.5 16,42" fill="#fff"/><polygon points="16,42 24,45.5 16,49" fill="#fff"/><polygon points="16,49 24,52.5 16,56" fill="#fff"/><polygon points="16,56 24,59.5 16,63" fill="#fff"/><polygon points="16,63 24,66.5 16,70" fill="#fff"/></g>
  <circle cx="32" cy="32" r="30" fill="none" stroke="rgba(255,255,255,.45)" stroke-width="2"/>
</svg>