<svg xmlns="http://www.w3.org/2000/svg" viewBox="0 0 64 64" role="img" aria-label="USA flag badge">
  <defs><clipPath id="clip"><circle cx="32" cy="32" r="30"/></clipPath></defs>
  <circle cx="32" cy="32" r="31" fill="#0f172a"/>
  <g clip-path="url(#clip)"><rect x="0" y="0.0" width="64" height="5.023076923076923" fill="#b22234"/><rect x="0" y="4.923076923076923" width="64" height="5.023076923076923" fill="#fff"/><rect x="0" y="9.846153846153847" width="64" height="5.023076923076923" fill="#b22234"/><rect x="0" y="14.76923076923077" width="64" height="5.023076923076923" fill="#fff"/><rect x="0" y="19.692307692307693" width="64" height="5.023076923076923" fill="#b22234"/><rect x="0" y="24.615384615384617" width="64" height="5.023076923076923" fill="#fff"/><rect x="0" y="29.53846153846154" width="64" height="5.023076923076923" fill="#b22234"/><rect x="0" y="34.46153846153846" width="64" height="5.023076923076923" fill="#fff"/><rect x="0" y="39.38461538461539" width="64" height="5.023076923076923" fill="#b22234"/><rect x="0" y="44.30769230769231" width="64" height="5.023076923076923" fill="#fff"/><rect x="0" y="49.23076923076923" width="64" height="5.023076923076923" fill="#b22234"/><rect x="0" y="54.15384615384615" width="64" height="5.023076923076923" fill="#fff"/><rect x="0" y="59.07692307692308" width="64" height="5.023076923076923" fill="#b22234"/><rect x="0" y="0" width="30" height="34" fill="#3c3b6e"/><polygon points="5.00,3.50 5.37,4.49 6.43,4.54 5.60,5.19 5.88,6.21 5.00,5.63 4.12,6.21 4.40,5.19 3.57,4.54 4.63,4.49" fill="#fff"/><polygon points="10.00,3.50 10.37,4.49 11.43,4.54 10.60,5.19 10.88,6.21 10.00,5.63 9.12,6.21 9.40,5.19 8.57,4.54 9.63,4.49" fill="#fff"/><polygon points="15.00,3.50 15.37,4.49 16.43,4.54 15.60,5.19 15.88,6.21 15.00,5.63 14.12,6.21 14.40,5.19 13.57,4.54 14.63,4.49" fill="#fff"/><polygon points="20.00,3.50 20.37,4.49 21.43,4.54 20.60,5.19 20.88,6.21 20.00,5.63 19.12,6.21 19.40,5.19 18.57,4.54 19.63,4.49" fill="#fff"/><polygon points="25.00,3.50 25.37,4.49 26.43,4.54 25.60,5.19 25.88,6.21 25.00,5.63 24.12,6.21 24.40,5.19 23.57,4.54 24.63,4.49" fill="#fff"/><polygon points="5.00,8.50 5.37,9.49 6.43,9.54 5.60,10.19 5.88,11.21 5.00,10.63 4.12,11.21 4.40,10.19 3.57,9.54 4.63,9.49" fill="#fff"/><polygon points="10.00,8.50 10.37,9.49 11.43,9.54 10.60,10.19 10.88,11.21 10.00,10.63 9.12,11.21 9.40,10.19 8.57,9.54 9.63,9.49" fill="#fff"/><polygon points="15.00,8.50 15.37,9.49 16.43,9.54 15.60,10.19 15.88,11.21 15.00,10.63 14.12,11.21 14.40,10.19 13.57,9.54 14.63,9.49" fill="#fff"/><polygon points="20.00,8.50 20.37,9.49 21.43,9.54 20.60,10.19 20.88,11.21 20.00,10.63 19.12,11.21 19.40,10.19 18.57,9.54 19.63,9.49" fill="#fff"/><polygon points="25.00,8.50 25.37,9.49 26.43,9.54 25.60,10.19 25.88,11.21 25.00,10.63 24.12,11.21 24.40,10.19 23.57,9.54 24.63,9.49" fill="#fff"/><polygon points="5.00,13.50 5.37,14.49 6.43,14.54 5.60,15.19 5.88,16.21 5.00,15.63 4.12,16.21 4.40,15.19 3.57,14.54 4.63,14.49" fill="#fff"/><polygon points="10.00,13.50 10.37,14.49 11.43,14.54 10.60,15.19 10.88,16.21 10.00,15.63 9.12,16.21 9.40,15.19 8.57,14.54 9.63,14.49" fill="#fff"/><polygon points="15.00,13.50 15.37,14.49 16.43,14.54 15.60,15.19 15.88,16.21 15.00,15.63 14.12,16.21 14.40,15.19 13.57,14.54 14.63,14.49" fill="#fff"/><polygon points="20.00,13.50 20.37,14.49 21.43,14.54 20.60,15.19 20.88,16.21 20.00,15.63 19.12,16.21 19.40,15.19 18.57,14.54 19.63,14.49" fill="#fff"/><polygon points="25.00,13.50 25.37,14.49 26.43,14.54 25.60,15.19 25.88,16.21 25.00,15.63 24.12,16.21 24.40,15.19 23.57,14.54 24.63,14.49" fill="#fff"/><polygon points="5.00,18.50 5.37,19.49 6.43,19.54 5.60,20.19 5.88,21.21 5.00,20.63 4.12,21.21 4.40,20.19 3.57,19.54 4.63,19.49" fill="#fff"/><polygon points="10.00,18.50 10.37,19.49 11.43,19.54 10.60,20.19 10.88,21.21 10.00,20.63 9.12,21.21 9.40,20.19 8.57,19.54 9.63,19.49" fill="#fff"/><polygon points="15.00,18.50 15.37,19.49 16.43,19.54 15.60,20.19 15.88,21.21 15.00,20.63 14.12,21.21 14.40,20.19 13.57,19.54 14.63,19.49" fill="#fff"/><polygon points="20.00,18.50 20.37,19.49 21.43,19.54 20.60,20.19 20.88,21.21 20.00,20.63 19.12,21.21 19.40,20.19 18.57,19.54 19.63,19.49" fill="#fff"/><polygon points="25.00,18.50 25.37,19.49 26.43,19.54 25.60,20.19 25.88,21.21 25.00,20.63 24.12,21.21 24.40,20.19 23.57,19.54 24.63,19.49" fill="#fff"/><polygon points="5.00,23.50 5.37,24.49 6.43,24.54 5.60,25.19 5.88,26.21 5.00,25.63 4.12,26.21 4.40,25.19 3.57,24.54 4.63,24.49" fill="#fff"/><polygon points="10.00,23.50 10.37,24.49 11.43,24.54 10.60,25.19 10.88,26.21 10.00,25.63 9.12,26.21 9.40,25.19 8.57,24.54 9.63,24.49" fill="#fff"/><polygon points="15.00,23.50 15.37,24.49 16.43,24.54 15.60,25.19 15.88,26.21 15.00,25.63 14.12,26.21 14.40,25.19 13.57,24.54 14.63,24.49" fill="#fff"/><polygon points="20.00,23.50 20.37,24.49 21.43,24.54 20.60,25.19 20.88,26.21 20.00,25.63 19.12,26.21 19.40,25.19 18.57,24.54 19.63,24.49" fill="#fff"/><polygon points="25.00,23.50 25.37,24.49 26.43,24.54 25.60,25.19 25.88,26.21 25.00,25.63 24.12,26.21 24.40,25.19 23.57,24.54 24.63,24.49" fill="#fff"/></g>
  <circle cx="32" cy="32" r="30" fill="none" stroke="rgba(255,255,255,.45)" stroke-width="2"/>
</svg>