<svg xmlns="http://www.w3.org/2000/svg" viewBox="0 0 64 64" role="img" aria-label="UZB flag badge">
  <defs><clipPath id="clip"><circle cx="32" cy="32" r="30"/></clipPath></defs>
  <circle cx="32" cy="32" r="31" fill="#0f172a"/>
  <g clip-path="url(#clip)"><rect x="0" y="0" width="64" height="21" fill="#1eb6e7"/><rect x="0" y="21" width="64" height="2" fill="#ce1126"/><rect x="0" y="23" width="64" height="18" fill="#fff"/><rect x="0" y="41" width="64" height="2" fill="#ce1126"/><rect x="0" y="43" width="64" height="21" fill="#009a44"/><circle cx="18" cy="11" r="7" fill="#fff"/><circle cx="21" cy="11" r="6" fill="#1eb6e7"/><polygon points="34.00,8.50 34.37,9.49 35.43,9.54 34.60,10.19 34.88,11.21 34.00,10.63 33.12,11.21 33.40,10.19 32.57,9.54 33.63,9.49" fill="#fff"/><polygon points="39.00,8.50 39.37,9.49 40.43,9.54 39.60,10.19 39.88,11.21 39.00,10.63 38.12,11.21 38.40,10.19 37.57,9.54 38.63,9.49" fill="#fff"/><polygon points="44.00,8.50 44.37,9.49 45.43,9.54 44.60,10.19 44.88,11.21 44.00,10.63 43.12,11.21 43.40,10.19 42.57,9.54 43.63,9.49" fill="#fff"/><polygon points="49.00,8.50 49.37,9.49 50.43,9.54 49.60,10.19 49.88,11.21 49.00,10.63 48.12,11.21 48.40,10.19 47.57,9.54 48.63,9.49" fill="#fff"/></g>
  <circle cx="32" cy="32" r="30" fill="none" stroke="rgba(255,255,255,.45)" stroke-width="2"/>
</svg>